<svg t="1694346889120" class="icon" viewBox="0 0 1024 1024" version="1.1" xmlns="http://www.w3.org/2000/svg" p-id="12730" width="200" height="200"><path d="M418.083 931c69.192 0 129.16-12.3 179.9-35.365 44.591-21.527 83.032-50.741 113.784-90.72v104.558h162.987V402.061c0-96.87-24.602-170.676-73.805-221.417C745.594 122.214 657.95 93 541.092 93c-101.483 0-181.439 16.914-239.868 53.817-69.193 39.977-112.246 104.557-129.16 192.201l173.75 13.839c9.226-41.516 32.29-72.268 66.118-92.257 29.215-18.451 67.655-26.14 116.859-26.14 113.783 0 170.675 50.742 170.675 155.3v30.752l-173.75 4.613c-116.86 3.075-207.578 27.677-272.158 73.805C182.828 546.596 149 615.79 149 704.97c0 66.118 24.602 119.935 73.806 162.988C270.472 909.473 335.05 931 418.083 931z m39.978-133.772c-38.44 0-69.193-10.764-93.795-29.215-24.602-18.452-35.365-41.516-35.365-69.193 0-95.332 69.193-144.536 209.116-147.61l161.45-4.614v39.978c0 61.505-24.603 112.246-70.731 152.224-46.129 38.44-103.02 58.43-170.675 58.43z" fill="#1296db" p-id="12731"></path></svg>
